<?xml version="1.0" encoding="UTF-8"?>
<svg width="32px" height="26px" viewBox="0 0 32 26" version="1.1" xmlns="http://www.w3.org/2000/svg" xmlns:xlink="http://www.w3.org/1999/xlink">
    <title>Group 3 Copy</title>
    <defs>
        <linearGradient x1="50%" y1="19.7530864%" x2="-7.49967912%" y2="106.425086%" id="linearGradient-1">
            <stop stop-color="#FFEF4D" offset="0%"></stop>
            <stop stop-color="#FF7B33" offset="100%"></stop>
        </linearGradient>
        <linearGradient x1="50%" y1="0%" x2="50%" y2="100%" id="linearGradient-2">
            <stop stop-color="#FFEF4D" offset="0%"></stop>
            <stop stop-color="#FF7B33" offset="100%"></stop>
        </linearGradient>
    </defs>
    <g id="CMS" stroke="none" stroke-width="1" fill="none" fill-rule="evenodd">
        <g id="Mobile" transform="translate(-503.000000, -106.000000)">
            <g id="Group-3-Copy" transform="translate(503.000000, 106.000000)">
                <path d="M9.68319559,0 C11.4180451,0 12.9338598,0.956239151 13.7513525,2.380006 C13.9275717,2.3588443 14.107208,2.34831461 14.2892562,2.34831461 C16.8909282,2.34831461 19,4.49885696 19,7.15168539 C19,7.9188547 18.8236175,8.64401762 18.5099469,9.28731108 C18.8236175,9.92901609 19,10.654179 19,11.4213483 C19,14.0741767 16.8909282,16.2247191 14.2892562,16.2247191 C14.1783085,16.2247191 14.0682567,16.2208082 13.959226,16.2131142 C13.2125913,17.8585491 11.578623,19 9.68319559,19 C7.773238,19 6.12876352,17.8409815 5.3893327,16.1750806 C5.16896119,16.2077578 4.94179506,16.2247191 4.7107438,16.2247191 C2.10907184,16.2247191 0,14.0741767 0,11.4213483 C0,10.654179 0.176382494,9.92901609 0.490053109,9.28572263 C0.176382494,8.64401762 0,7.9188547 0,7.15168539 C0,4.49885696 2.10907184,2.34831461 4.7107438,2.34831461 C5.01044621,2.34831461 5.30361175,2.3768526 5.58776936,2.43140894 C6.39678014,0.978945005 7.92787,0 9.68319559,0 Z" id="Combined-Shape-Copy-9" fill="#25A28C"></path>
                <path d="M23,11 C24.1234691,11 25.1561216,11.3991632 25.9707242,12.0668758 L25.9703428,19.0470365 L14.0295199,19.047548 C14.0100153,18.8677933 14,18.6850973 14,18.5 C14,15.7986072 16.1332315,13.6086957 18.7647059,13.6086957 L18.7858301,13.6087427 L18.7858301,13.6087427 C19.584081,12.0570052 21.171797,11 23,11 Z" id="Combined-Shape" fill="#50B387"></path>
                <path d="M23.253319,11.0067945 L23,11 C23.0956071,11 23.1905566,11.0028907 23.28477,11.0085917 C23.3509362,11.0126041 23.4161422,11.0179408 23.4809652,11.0246112 C23.5163485,11.0282511 23.551769,11.0323075 23.58707,11.0367602 C23.6339351,11.042675 23.6802588,11.0492363 23.726365,11.0564761 C23.7537228,11.0607694 23.7814131,11.0653733 23.8090222,11.0702212 C23.8584342,11.0788991 23.9074248,11.0883242 23.956145,11.0985126 C23.9900996,11.1056117 24.0241105,11.1131252 24.0579845,11.1210092 C24.0967676,11.1300403 24.1348782,11.1394288 24.1728075,11.1492843 C24.2120786,11.1594829 24.2517365,11.1703496 24.2911872,11.1817246 C24.3436482,11.1968573 24.395252,11.2127284 24.4464799,11.2294647 C24.4616293,11.2344136 24.4768842,11.2394848 24.4921051,11.2446327 C24.5516492,11.2647711 24.6106813,11.2860846 24.6691684,11.3085442 C24.6880443,11.315794 24.7065997,11.323058 24.7250991,11.3304372 C24.8667998,11.3869473 25.0055323,11.4503807 25.140585,11.5202161 C25.1645162,11.5325858 25.1890152,11.5455249 25.2133896,11.5586745 C25.2628258,11.5853541 25.3111405,11.612542 25.358937,11.640555 C25.3740903,11.6494347 25.3894809,11.6585713 25.4048167,11.6677935 C25.4515044,11.6958728 25.4974329,11.7245811 25.5428426,11.7540554 C25.5665002,11.7694072 25.5904624,11.7852674 25.6142758,11.8013409 C25.6554977,11.8291718 25.6958145,11.8573107 25.7356827,11.886061 C25.7627068,11.9055471 25.7896965,11.9254436 25.8164732,11.9456204 C25.8417002,11.964629 25.8667822,11.9839209 25.891671,12.0034589 C25.9182821,12.0243496 25.9446152,12.0454748 25.9707242,12.0668758 C26.4822617,12.4864001 26.9070984,13.0106235 27.2148829,13.6081831 L27.2352941,13.6086957 C29.8667685,13.6086957 32,15.7986072 32,18.5 C32,21.2013928 29.8667685,23.3913043 27.2352941,23.3913043 L27.2141699,23.3912573 L27.2141699,23.3912573 C26.415919,24.9429948 24.828203,26 23,26 C21.171797,26 19.584081,24.9429948 18.7851171,23.3918169 L18.7647059,23.3913043 C16.3135381,23.3913043 14.2946739,21.4912135 14.0295199,19.047548 L25.9703428,19.0470365 L25.9717163,12.0676892 C25.9452632,12.0459944 25.91858,12.0245828 25.891671,12.0034589 C25.8668359,11.9839624 25.8417494,11.9646665 25.8164732,11.9456204 L25.891671,12.0034589 C25.8404818,11.9632747 25.7884757,11.9241318 25.7356827,11.886061 L25.8164732,11.9456204 C25.7503519,11.8957967 25.6829321,11.8476824 25.6142758,11.8013409 L25.7356827,11.886061 C25.6725121,11.8405065 25.608215,11.7964871 25.5428426,11.7540554 L25.6142758,11.8013409 C25.5456703,11.7550338 25.4758301,11.7104969 25.4048167,11.6677935 L25.5428426,11.7540554 C25.482445,11.7148528 25.4211296,11.6770054 25.358937,11.640555 L25.4048167,11.6677935 C25.3419139,11.6299672 25.2780905,11.5935796 25.2133896,11.5586745 L25.358937,11.640555 C25.2872964,11.5985672 25.2144917,11.558433 25.140585,11.5202161 L25.2133896,11.5586745 C25.0556363,11.4735693 24.8926658,11.3972777 24.7250991,11.3304372 C24.7062888,11.3229357 24.6877561,11.315682 24.6691684,11.3085442 L24.7250991,11.3304372 C24.648378,11.2998341 24.5706935,11.2712122 24.4921051,11.2446327 L24.6691684,11.3085442 C24.5957798,11.2803623 24.5215332,11.2539849 24.4464799,11.2294647 L24.4921051,11.2446327 C24.4257646,11.2221956 24.35878,11.201214 24.2911872,11.1817246 L24.4464799,11.2294647 C24.3563887,11.2000316 24.265135,11.1732745 24.1728075,11.1492843 L24.2911872,11.1817246 C24.2142239,11.1595334 24.136472,11.1392768 24.0579845,11.1210092 L24.1728075,11.1492843 C24.1012185,11.1306827 24.0289839,11.1137447 23.956145,11.0985126 L24.0579845,11.1210092 C23.9757837,11.1018774 23.892776,11.0849272 23.8090222,11.0702212 L23.956145,11.0985126 C23.8801931,11.0826295 23.8035841,11.0686013 23.726365,11.0564761 L23.8090222,11.0702212 C23.7355979,11.0573288 23.6616002,11.0461611 23.58707,11.0367602 L23.726365,11.0564761 C23.6452207,11.0437345 23.5634027,11.0330943 23.4809652,11.0246112 L23.58707,11.0367602 C23.487226,11.0241663 23.3864265,11.0147431 23.28477,11.0085917 L23.4809652,11.0246112 C23.4055871,11.0168546 23.3296912,11.0109015 23.253319,11.0067945 L23,11 L23,11 C23.0849776,11 23.1694356,11.0022837 23.253319,11.0067945 Z" id="Combined-Shape-Copy-8" fill="#25A28C"></path>
                <path d="M10,11 L10,21 L26,21 L26,23 L10,23 L10,25 L8,25 L8,11 L10,11 Z" id="Combined-Shape-Copy-10" fill="url(#linearGradient-1)"></path>
                <path d="M14.6688351,21.0005516 L26,21 L26,23 L16.8963038,23.0009189 C15.9634764,22.5923132 15.1834904,21.8870313 14.6688351,21.0005516 Z" id="Combined-Shape" fill="#50BE89"></path>
                <path d="M19.0096192,5.04703648 L25.9703428,8.92083803 L25.9707242,12.0668758 C25.1561216,11.3991632 24.1234691,11 23,11 C21.171797,11 19.584081,12.0570052 18.7858301,13.6087427 L18.7858301,13.6087427 L18.7647059,13.6086957 C16.1332315,13.6086957 14,15.7986072 14,18.5 C14,18.6850973 14.0100153,18.8677933 14.0295199,19.047548 L12,19.0470365 L12,8.92083803 L19.0096192,5.04703648 Z" id="Combined-Shape" fill="url(#linearGradient-2)"></path>
            </g>
        </g>
    </g>
</svg>